<?xml version="1.0" encoding="UTF-8" standalone="no"?>
<svg width="158px" height="158px" viewBox="0 0 158 158" version="1.1" xmlns="http://www.w3.org/2000/svg" xmlns:xlink="http://www.w3.org/1999/xlink">
    <!-- Generator: Sketch 39.1 (31720) - http://www.bohemiancoding.com/sketch -->
    <title>Oval 2</title>
    <desc>Created with Sketch.</desc>
    <defs>
        <rect id="path-1" x="-548" y="-37" width="772" height="250"></rect>
        <rect id="path-2" x="0" y="0" width="294" height="250"></rect>
    </defs>
    <g id="Page-1" stroke="none" stroke-width="1" fill="none" fill-rule="evenodd">
        <g id="Rectangle">
            <use fill="#FFD453" xlink:href="#path-1"></use>
            <use fill="#FFCD35" xlink:href="#path-1"></use>
        </g>
        <path d="M78.5966387,122 C122.004364,122 157.193277,79 157.193277,79 C157.193277,79 122.004364,36 78.5966387,36 C35.1889137,36 0,79 0,79 C0,79 35.1889137,122 78.5966387,122 Z" id="Oval-2" fill="#FFFFFF"></path>
        <circle id="Oval-3" fill="#080808" cx="78.5" cy="79.5" r="37.5"></circle>
        <g id="Group-2" transform="translate(-267.000000, -37.000000)">
            <mask id="mask-3" fill="white">
                <use xlink:href="#path-2"></use>
            </mask>
            <g id="Rectangle-3"></g>
            <path d="M323.5,386 C446.383357,386 546,286.383357 546,163.5 C546,40.6166432 446.383357,-59 323.5,-59 C200.616643,-59 101,40.6166432 101,163.5 C101,286.383357 200.616643,386 323.5,386 Z M323.5,336 C418.769119,336 496,258.769119 496,163.5 C496,68.2308807 418.769119,-9 323.5,-9 C228.230881,-9 151,68.2308807 151,163.5 C151,258.769119 228.230881,336 323.5,336 Z" id="Combined-Shape" fill="#4CAF50" mask="url(#mask-3)"></path>
        </g>
        <rect id="Rectangle-4" fill="#FF5722" x="93" y="55" width="14" height="14"></rect>
    </g>
</svg>